<?xml version="1.0" encoding="UTF-8" standalone="no"?>
<!DOCTYPE svg PUBLIC "-//W3C//DTD SVG 1.1//EN"
 "http://www.w3.org/Graphics/SVG/1.1/DTD/svg11.dtd">
<!-- Generated by graphviz version 2.40.1 (20161225.0304)
 -->
<!-- Title: G Pages: 1 -->
<svg width="689pt" height="210pt"
 viewBox="0.00 0.00 689.00 210.00" xmlns="http://www.w3.org/2000/svg" xmlns:xlink="http://www.w3.org/1999/xlink">
<g id="graph0" class="graph" transform="scale(1 1) rotate(0) translate(4 206)">
<title>G</title>
<polygon fill="#ffffff" stroke="transparent" points="-4,4 -4,-206 685,-206 685,4 -4,4"/>
<!-- CSCI1300 -->
<g id="node1" class="node">
<title>CSCI1300</title>
<g id="a_node1"><a xlink:href="https://catalog.colorado.edu/search/?search=CSCI+1300" xlink:title="CSCI 1300\n(programming intro)">
<polygon fill="none" stroke="#000000" points="505,-202 375,-202 375,-164 505,-164 505,-202"/>
<text text-anchor="middle" x="440" y="-186.8" font-family="Times,serif" font-size="14.00" fill="#000000">CSCI 1300</text>
<text text-anchor="middle" x="440" y="-171.8" font-family="Times,serif" font-size="14.00" fill="#000000">(programming intro)</text>
</a>
</g>
</g>
<!-- CSCI2270 -->
<g id="node2" class="node">
<title>CSCI2270</title>
<g id="a_node2"><a xlink:href="https://catalog.colorado.edu/search/?search=CSCI+2270" xlink:title="CSCI 2270\n(data structures)">
<polygon fill="none" stroke="#000000" points="368,-113 264,-113 264,-75 368,-75 368,-113"/>
<text text-anchor="middle" x="316" y="-97.8" font-family="Times,serif" font-size="14.00" fill="#000000">CSCI 2270</text>
<text text-anchor="middle" x="316" y="-82.8" font-family="Times,serif" font-size="14.00" fill="#000000">(data structures)</text>
</a>
</g>
</g>
<!-- CSCI1300&#45;&gt;CSCI2270 -->
<g id="edge1" class="edge">
<title>CSCI1300&#45;&gt;CSCI2270</title>
<path fill="none" stroke="#000000" d="M413.3989,-163.9073C395.0923,-150.7679 370.5936,-133.1841 350.7466,-118.9391"/>
<polygon fill="#000000" stroke="#000000" points="352.722,-116.0487 342.5571,-113.0612 348.6403,-121.7356 352.722,-116.0487"/>
</g>
<!-- CSCI2824 -->
<g id="node4" class="node">
<title>CSCI2824</title>
<g id="a_node4"><a xlink:href="https://catalog.colorado.edu/search/?search=CSCI+2824" xlink:title="CSCI 2824\n(discrete structures)">
<polygon fill="none" stroke="#000000" points="510,-113 386,-113 386,-75 510,-75 510,-113"/>
<text text-anchor="middle" x="448" y="-97.8" font-family="Times,serif" font-size="14.00" fill="#000000">CSCI 2824</text>
<text text-anchor="middle" x="448" y="-82.8" font-family="Times,serif" font-size="14.00" fill="#000000">(discrete structures)</text>
</a>
</g>
</g>
<!-- CSCI1300&#45;&gt;CSCI2824 -->
<g id="edge3" class="edge">
<title>CSCI1300&#45;&gt;CSCI2824</title>
<path fill="none" stroke="#000000" d="M441.7359,-163.6883C442.7947,-151.909 444.1691,-136.6187 445.3606,-123.3628"/>
<polygon fill="#000000" stroke="#000000" points="448.8581,-123.5472 446.2675,-113.274 441.8862,-122.9205 448.8581,-123.5472"/>
</g>
<!-- CSCI2400 -->
<g id="node3" class="node">
<title>CSCI2400</title>
<g id="a_node3"><a xlink:href="https://catalog.colorado.edu/search/?search=CSCI+2400" xlink:title="CSCI 2400\n(computer systems)">
<polygon fill="none" stroke="#000000" points="378.5,-38 253.5,-38 253.5,0 378.5,0 378.5,-38"/>
<text text-anchor="middle" x="316" y="-22.8" font-family="Times,serif" font-size="14.00" fill="#000000">CSCI 2400</text>
<text text-anchor="middle" x="316" y="-7.8" font-family="Times,serif" font-size="14.00" fill="#000000">(computer systems)</text>
</a>
</g>
</g>
<!-- CSCI2270&#45;&gt;CSCI2400 -->
<g id="edge2" class="edge">
<title>CSCI2270&#45;&gt;CSCI2400</title>
<path fill="none" stroke="#000000" d="M316,-74.6856C316,-66.7247 316,-57.321 316,-48.53"/>
<polygon fill="#000000" stroke="#000000" points="319.5001,-48.2489 316,-38.2489 312.5001,-48.2489 319.5001,-48.2489"/>
</g>
<!-- CSCI3155 -->
<g id="node5" class="node">
<title>CSCI3155</title>
<g id="a_node5"><a xlink:href="https://catalog.colorado.edu/search/?search=CSCI+3155" xlink:title="CSCI 3155\n(programming languages)">
<polygon fill="none" stroke="#000000" points="657,-38 499,-38 499,0 657,0 657,-38"/>
<text text-anchor="middle" x="578" y="-22.8" font-family="Times,serif" font-size="14.00" fill="#000000">CSCI 3155</text>
<text text-anchor="middle" x="578" y="-7.8" font-family="Times,serif" font-size="14.00" fill="#000000">(programming languages)</text>
</a>
</g>
</g>
<!-- CSCI2270&#45;&gt;CSCI3155 -->
<g id="edge4" class="edge">
<title>CSCI2270&#45;&gt;CSCI3155</title>
<path fill="none" stroke="#000000" d="M368.2119,-77.6235C371.1824,-76.7272 374.1275,-75.8473 377,-75 416.7089,-63.2871 461.023,-50.8713 497.9163,-40.7146"/>
<polygon fill="#000000" stroke="#000000" points="498.9053,-44.0727 507.6205,-38.048 497.0505,-37.3229 498.9053,-44.0727"/>
</g>
<!-- CSCI3104 -->
<g id="node6" class="node">
<title>CSCI3104</title>
<g id="a_node6"><a xlink:href="https://catalog.colorado.edu/search/?search=CSCI+3104" xlink:title="CSCI 3104\n(algorithms)">
<polygon fill="none" stroke="#000000" points="481,-38 397,-38 397,0 481,0 481,-38"/>
<text text-anchor="middle" x="439" y="-22.8" font-family="Times,serif" font-size="14.00" fill="#000000">CSCI 3104</text>
<text text-anchor="middle" x="439" y="-7.8" font-family="Times,serif" font-size="14.00" fill="#000000">(algorithms)</text>
</a>
</g>
</g>
<!-- CSCI2270&#45;&gt;CSCI3104 -->
<g id="edge6" class="edge">
<title>CSCI2270&#45;&gt;CSCI3104</title>
<path fill="none" stroke="#000000" d="M347.3563,-74.8803C362.9705,-65.3595 382.0286,-53.7387 398.713,-43.5653"/>
<polygon fill="#000000" stroke="#000000" points="400.9851,-46.2792 407.7009,-38.0848 397.3408,-40.3026 400.9851,-46.2792"/>
</g>
<!-- CSCI3308 -->
<g id="node7" class="node">
<title>CSCI3308</title>
<g id="a_node7"><a xlink:href="https://catalog.colorado.edu/search/?search=CSCI+3308" xlink:title="CSCI 3308\n(software tools &amp; dev)">
<polygon fill="none" stroke="#000000" points="140,-38 0,-38 0,0 140,0 140,-38"/>
<text text-anchor="middle" x="70" y="-22.8" font-family="Times,serif" font-size="14.00" fill="#000000">CSCI 3308</text>
<text text-anchor="middle" x="70" y="-7.8" font-family="Times,serif" font-size="14.00" fill="#000000">(software tools &amp; dev)</text>
</a>
</g>
</g>
<!-- CSCI2270&#45;&gt;CSCI3308 -->
<g id="edge8" class="edge">
<title>CSCI2270&#45;&gt;CSCI3308</title>
<path fill="none" stroke="#000000" d="M263.8297,-78.0944C228.4646,-67.3124 181.2491,-52.9174 142.2728,-41.0344"/>
<polygon fill="#000000" stroke="#000000" points="143.1394,-37.6396 132.5534,-38.0712 141.098,-44.3353 143.1394,-37.6396"/>
</g>
<!-- CSCI3022 -->
<g id="node8" class="node">
<title>CSCI3022</title>
<g id="a_node8"><a xlink:href="https://catalog.colorado.edu/search/?search=CSCI+3022" xlink:title="CSCI 3022\n(statistics)">
<polygon fill="none" stroke="#000000" points="235.5,-38 158.5,-38 158.5,0 235.5,0 235.5,-38"/>
<text text-anchor="middle" x="197" y="-22.8" font-family="Times,serif" font-size="14.00" fill="#000000">CSCI 3022</text>
<text text-anchor="middle" x="197" y="-7.8" font-family="Times,serif" font-size="14.00" fill="#000000">(statistics)</text>
</a>
</g>
</g>
<!-- CSCI2270&#45;&gt;CSCI3022 -->
<g id="edge9" class="edge">
<title>CSCI2270&#45;&gt;CSCI3022</title>
<path fill="none" stroke="#000000" d="M285.6634,-74.8803C270.557,-65.3595 252.1187,-53.7387 235.9769,-43.5653"/>
<polygon fill="#000000" stroke="#000000" points="237.6074,-40.4558 227.2812,-38.0848 233.875,-46.3777 237.6074,-40.4558"/>
</g>
<!-- CSCI2824&#45;&gt;CSCI3155 -->
<g id="edge5" class="edge">
<title>CSCI2824&#45;&gt;CSCI3155</title>
<path fill="none" stroke="#000000" d="M481.1409,-74.8803C497.7964,-65.2713 518.1597,-53.5233 535.9094,-43.283"/>
<polygon fill="#000000" stroke="#000000" points="538.0068,-46.1137 544.9197,-38.0848 534.5087,-40.0504 538.0068,-46.1137"/>
</g>
<!-- CSCI2824&#45;&gt;CSCI3104 -->
<g id="edge7" class="edge">
<title>CSCI2824&#45;&gt;CSCI3104</title>
<path fill="none" stroke="#000000" d="M445.6823,-74.6856C444.7165,-66.6372 443.5737,-57.1142 442.5088,-48.2404"/>
<polygon fill="#000000" stroke="#000000" points="445.9765,-47.7606 441.3099,-38.2489 439.0263,-48.5947 445.9765,-47.7606"/>
</g>
<!-- A -->
<g id="node9" class="node">
<title>A</title>
<polygon fill="none" stroke="#000000" points="588,-201 534,-201 534,-165 588,-165 588,-201"/>
<text text-anchor="middle" x="561" y="-179.3" font-family="Times,serif" font-size="14.00" fill="#000000">A</text>
</g>
<!-- B -->
<g id="node10" class="node">
<title>B</title>
<polygon fill="none" stroke="#000000" points="588,-112 534,-112 534,-76 588,-76 588,-112"/>
<text text-anchor="middle" x="561" y="-90.3" font-family="Times,serif" font-size="14.00" fill="#000000">B</text>
</g>
<!-- A&#45;&gt;B -->
<g id="edge10" class="edge">
<title>A&#45;&gt;B</title>
<path fill="none" stroke="#000000" d="M561,-164.9895C561,-152.7658 561,-136.3495 561,-122.3824"/>
<polygon fill="#000000" stroke="#000000" points="564.5001,-122.2891 561,-112.2892 557.5001,-122.2892 564.5001,-122.2891"/>
<text text-anchor="middle" x="621" y="-134.8" font-family="Times,serif" font-size="14.00" fill="#000000">Must take A before B</text>
</g>
</g>
</svg>
